<svg preserveAspectRatio="none" overflow="visible" style="display: block;" width="21" height="21" viewBox="0 0 21 21" fill="none" xmlns="http://www.w3.org/2000/svg">
<path id="Vector" d="M15.3803 0C18.48 0 21 2.485 21 5.54167V15.4583C21 18.515 18.48 21 15.3803 21H5.61972C2.52 21 0 18.515 0 15.4583V5.54167C0 2.485 2.52 0 5.61972 0H15.3803ZM10.5 4.95833C7.40028 4.95833 4.88028 7.44333 4.88028 10.5C4.88028 13.5567 7.40028 16.0417 10.5 16.0417C13.5997 16.0417 16.1197 13.5567 16.1197 10.5C16.1197 7.44333 13.5997 4.95833 10.5 4.95833ZM10.5 6.70833C11.5198 6.70833 12.4978 7.10781 13.2189 7.81889C13.94 8.52996 14.3451 9.49439 14.3451 10.5C14.3451 11.5056 13.94 12.47 13.2189 13.1811C12.4978 13.8922 11.5198 14.2917 10.5 14.2917C9.48022 14.2917 8.50222 13.8922 7.78112 13.1811C7.06003 12.47 6.65493 11.5056 6.65493 10.5C6.65493 9.49439 7.06003 8.52996 7.78112 7.81889C8.50222 7.10781 9.48022 6.70833 10.5 6.70833ZM17.007 2.91667C16.3563 2.91667 15.8239 3.44167 15.8239 4.08333C15.8239 4.725 16.3563 5.25 17.007 5.25C17.6577 5.25 18.1901 4.725 18.1901 4.08333C18.1901 3.44167 17.6577 2.91667 17.007 2.91667Z" fill="black"/>
</svg>
